<svg xmlns="http://www.w3.org/2000/svg" version="1.1" xmlns:xlink="http://www.w3.org/1999/xlink" width="2000" height="172" viewBox="0 0 2000 172"><svg xml:space="preserve" width="2000" height="172" data-version="2" data-id="lg_tQ4zSjgpnYYXVyJvpH" viewBox="0 0 528 172" x="0" y="0"><rect width="100%" height="100%" fill="transparent"></rect><path fill="#111" d="M215.763 84.795q-5.03-3.63-8.65-5.33-3.63-1.69-8.43-1.69-9.59 0-16.49 4.91-5.27 3.86-7.84 10.06-2.58 6.2-2.58 13.93 0 7.37 3.4 12.92 3.39 5.56 8.77 8.49 5.38 2.92 11.23 2.92 5.85 0 10.12-1.81t6.85-4.74q3.98-5.03 3.98-13.34 0-1.17-1.88-1.64-1.87-.46-5.38-.46l-8.42.11q-3.4 0-5.38-1.28-1.99-1.29-1.99-3.28 0-2.81 1.87-4.15 1.87-1.35 5.03-1.35 3.74 0 10.06.47t9.13.47q4.09 0 6.61 2.57 2.51 2.58 2.51 7.49 0 4.56-1.99 10.65-1.98 6.08-5.61 10.88-3.51 4.68-10.36 7.08-6.84 2.39-15.15 2.39-6.9 0-13.34-2.22-6.43-2.22-10.76-6.2-5.38-5.03-8.48-11.99-3.1-6.96-3.1-13.87 0-10.06 4.74-19.59 4.73-9.54 12.81-14.8 3.51-2.34 9.83-3.87 6.31-1.52 11.58-1.52 8.19 0 14.39 2.52 6.2 2.51 9.48 7.19 1.4 2.11 1.4 3.75 0 1.87-1.64 3.51-1.64 1.64-3.27 1.64-.71 0-1.64-.24-.94-.23-1.41-.58"></path><rect width="68.79" height="74.06" x="-34.4" y="-37.03" fill="none" rx="0" ry="0" transform="translate(194.39 104.53)"></rect><path fill="#111" d="M255.083 73.205q0 3.4-.24 9.01l-.11 7.61q0 11.11 1.63 18.6 2.34 10.53 7.02 16.26 4.33 5.04 10.65 5.04 4.91 0 8.78-2.99 3.86-2.98 5.96-7.43 3.51-7.25 3.51-17.9 0-6.43-.82-15.21-.7-9.83-.7-14.74 0-2.57 3.04-3.34 3.05-.76 6.32-.76 1.17 0 2.69 1.53 1.52 1.52 1.52 3.27 0 3.51-.35 6.67-.23 3.51-.23 4.91 0 4.45.47 12.41.11 1.99.23 4.79.12 2.81.12 6.44 0 7.95-3.8 15.85-3.81 7.9-10.59 12.99-6.79 5.09-15.33 5.09-13.1 0-20.48-8.48-7.37-8.49-10.06-21.94-1.52-7.72-1.93-16.15-.41-8.42-.41-22.58 0-1.87 1.82-3.51 1.81-1.64 3.92-1.64 7.37 0 7.37 6.2"></path><rect width="62.6" height="74.3" x="-31.3" y="-37.15" fill="none" rx="0" ry="0" transform="translate(273.77 104.66)"></rect><path fill="#111" d="M372.903 119.895q0 5.5-2.52 9.42t-8.25 7.19q-3.86 2.34-9.01 3.51t-10.41 1.17q-5.38 0-13.34-3.51-5.73-2.81-9.07-6.67-3.33-3.86-3.33-8.42 0-3.16 1.4-4.62 1.41-1.47 4.57-1.47 1.63 0 3.39 1.35 1.75 1.35 2.11 2.63 1.63 4.8 5.73 7.31 4.09 2.52 10.18 2.52 7.02 0 11.76-2.57 4.73-2.58 4.73-6.91 0-4.21-5.14-7.48-5.15-3.28-10.53-4.57-7.73-2.1-13.69-5.03-6.2-3.04-9.25-7.49-3.04-4.44-3.04-9.36 0-4.56 3.16-9.3 3.16-4.74 7.49-6.84 2.34-1.17 8.01-2.52 5.68-1.34 8.25-1.34 3.4 0 7.49.82 4.1.81 6.67 2.34 5.15 2.92 7.6 5.26 2.46 2.34 2.46 5.85 0 2.11-1.58 3.74-1.58 1.64-5.44 1.64-.93 0-1.87-.82-.94-.82-2.34-2.45-1.87-2.46-3.63-3.28-1.75-.58-5.09-1.29-3.33-.7-5.91-.7-2.8 0-5.85 1.17-3.04 1.17-5.08 3.34-2.05 2.16-2.05 4.97 0 2.34 2.16 4.03 2.17 1.7 5.21 2.75 3.51 1.41 7.6 2.46 5.39 1.64 8.84 2.98 3.45 1.35 6.72 3.34 5.74 3.39 8.31 6.96 2.58 3.57 2.58 9.89"></path><rect width="55.93" height="74.29" x="-27.96" y="-37.15" fill="none" rx="0" ry="0" transform="translate(345.44 104.54)"></rect><path fill="#111" d="M378.983 72.855q0-5.03 7.37-5.03 3.16 0 12.05.24 9.83.46 14.86.46 4.1 0 9.95-.46 3.97-.24 5.03-.24 6.43.24 10.88 2.34 1.28.59 2.1 1.41.82.82.82 2.69 0 2.57-1.64 4.38-1.63 1.82-3.97 1.82-2.58 0-7.49-.7-4.33-.82-7.61-.82-3.16 0-4.79.11-.35 3.87-.35 18.49 0 17.43 1.05 35.33l.23 3.4q0 4.79-5.5 4.79-4.33 0-5.85-2.04-1.52-2.05-1.52-6.26 0-8.31-.47-20.71-.46-10.3-.46-14.63 0-2.92.7-17.9l-13.69.12q-6.55 0-9.13-1.23-2.57-1.23-2.57-5.56"></path><rect width="63.06" height="73.24" x="-31.53" y="-36.62" fill="none" rx="0" ry="0" transform="translate(411.01 104.94)"></rect><path fill="#111" d="M483.933 66.655q7.84 0 14.27 1.93 6.44 1.93 10.53 5.68 7.37 6.67 10.36 14.56 2.98 7.9 2.98 20.19 0 2.57-.64 4.68-.65 2.1-2.05 5.38-1.76 3.63-2.11 5.73-2.34 4.1-7.66 7.84t-11.52 6.08q-6.21 2.34-10.89 2.34-22.58 0-32.17-15.44-2.69-4.33-4.15-9.01-1.47-4.68-1.47-9.12 0-11.94 4.27-20.77 4.27-8.84 11.88-13.75 4.56-2.69 9.54-4.5 4.97-1.82 8.83-1.82m-22.35 41.19q0 6.31 2.87 10.41 2.86 4.09 8.83 8.89 4.92 1.87 6.67 2.4 1.76.53 3.98.53 11.82 0 18.84-6.44 7.02-6.43 7.02-17.67 0-8.89-1.99-14.04-1.99-5.14-7.14-9.24-2.69-2.22-6.84-3.27-4.16-1.06-8.96-1.06-7.25 0-12.51 4.27-5.27 4.27-8.02 11.06-2.75 6.79-2.75 14.16"></path><rect width="72.66" height="74.41" x="-36.33" y="-37.2" fill="none" rx="0" ry="0" transform="translate(486.24 104.36)"></rect><circle r="17.11" fill="#ff4136" transform="translate(64.47 88.6)scale(1.7365)"></circle><path fill="#ff4136" d="M98.806 20.54a12.195 12.195 0 0 1-12.193 12.198V60.1s-8.322-6.898-22.139-6.898c-13.816 0-22.139 6.898-22.139 6.898V34.787A12.195 12.195 0 0 1 30.142 22.59a12.19 12.19 0 0 1 11.193-12.154A12.19 12.19 0 0 1 52.277 3.63c1.535 0 3.002.285 4.357.8a12.16 12.16 0 0 1 7.84-2.849c2.985 0 5.718 1.073 7.839 2.85a12.21 12.21 0 0 1 4.358-.8 12.178 12.178 0 0 1 9.636 4.717c.102-.003.205-.003.306-.003A12.194 12.194 0 0 1 98.806 20.54m-35.2 109.044L41.642 118.91l-3.196 5.909h-13.02c-11.32 0-20.498 9.177-20.498 20.498v23.366h37.187V140.14z"></path><path fill="#ff4136" d="M103.52 124.819H90.498l-2.813-5.131-43.833 21.536v27.459h80.164v-23.366c0-11.32-9.176-20.498-20.498-20.498M47.99 167.721a2.681 2.681 0 1 1-.003-5.362 2.681 2.681 0 0 1 .003 5.362m0-20.513a2.681 2.681 0 1 1-.003-5.363 2.681 2.681 0 0 1 .003 5.363m35.011 20.513a2.681 2.681 0 1 1-.003-5.362 2.681 2.681 0 0 1 .003 5.362m0-20.513a2.681 2.681 0 1 1-.003-5.363 2.681 2.681 0 0 1 .003 5.363"></path></svg></svg>